<mxfile host="app.diagrams.net" modified="2024-02-15T12:33:28.808Z" agent="Mozilla/5.0 (Macintosh; Intel Mac OS X 10.15; rv:122.0) Gecko/20100101 Firefox/122.0" etag="OTUzxUqH10SawwVe5HMe" version="23.1.4" type="device">
  <diagram name="Page-1" id="sPnmD_4Wyx7seCbhBnno">
    <mxGraphModel dx="2314" dy="2229" grid="1" gridSize="10" guides="1" tooltips="1" connect="1" arrows="1" fold="1" page="1" pageScale="1" pageWidth="850" pageHeight="1100" math="0" shadow="0">
      <root>
        <mxCell id="0" />
        <mxCell id="1" parent="0" />
        <mxCell id="ukYczLT7QkBG6kKqyN5O-36" value="" style="ellipse;shape=cloud;whiteSpace=wrap;html=1;" vertex="1" parent="1">
          <mxGeometry x="20" y="-60" width="860" height="660" as="geometry" />
        </mxCell>
        <mxCell id="ukYczLT7QkBG6kKqyN5O-2" value="DB A" style="strokeWidth=2;html=1;shape=mxgraph.flowchart.database;whiteSpace=wrap;" vertex="1" parent="1">
          <mxGeometry x="410" y="60" width="60" height="60" as="geometry" />
        </mxCell>
        <mxCell id="ukYczLT7QkBG6kKqyN5O-38" style="edgeStyle=orthogonalEdgeStyle;rounded=0;orthogonalLoop=1;jettySize=auto;html=1;" edge="1" parent="1" source="ukYczLT7QkBG6kKqyN5O-3" target="ukYczLT7QkBG6kKqyN5O-2">
          <mxGeometry relative="1" as="geometry">
            <Array as="points">
              <mxPoint x="440" y="150" />
              <mxPoint x="440" y="150" />
            </Array>
          </mxGeometry>
        </mxCell>
        <mxCell id="ukYczLT7QkBG6kKqyN5O-45" style="rounded=0;orthogonalLoop=1;jettySize=auto;html=1;entryX=0.5;entryY=0;entryDx=0;entryDy=0;" edge="1" parent="1" source="ukYczLT7QkBG6kKqyN5O-3" target="ukYczLT7QkBG6kKqyN5O-6">
          <mxGeometry relative="1" as="geometry" />
        </mxCell>
        <mxCell id="ukYczLT7QkBG6kKqyN5O-59" style="edgeStyle=orthogonalEdgeStyle;rounded=0;orthogonalLoop=1;jettySize=auto;html=1;" edge="1" parent="1" source="ukYczLT7QkBG6kKqyN5O-3" target="ukYczLT7QkBG6kKqyN5O-33">
          <mxGeometry relative="1" as="geometry" />
        </mxCell>
        <mxCell id="ukYczLT7QkBG6kKqyN5O-3" value="&lt;div&gt;Application A&lt;br&gt;&lt;/div&gt;" style="verticalLabelPosition=bottom;html=1;verticalAlign=top;align=center;strokeColor=#000000;fillColor=#000000;shape=mxgraph.azure.computer;pointerEvents=1;" vertex="1" parent="1">
          <mxGeometry x="415" y="160" width="50" height="45" as="geometry" />
        </mxCell>
        <mxCell id="ukYczLT7QkBG6kKqyN5O-4" value="Server A" style="sketch=0;outlineConnect=0;fontColor=#232F3E;gradientColor=none;fillColor=#232F3D;strokeColor=none;dashed=0;verticalLabelPosition=bottom;verticalAlign=top;align=center;html=1;fontSize=12;fontStyle=0;aspect=fixed;pointerEvents=1;shape=mxgraph.aws4.traditional_server;" vertex="1" parent="1">
          <mxGeometry x="140" y="170" width="45" height="78" as="geometry" />
        </mxCell>
        <mxCell id="ukYczLT7QkBG6kKqyN5O-19" value="" style="group" vertex="1" connectable="0" parent="1">
          <mxGeometry x="390" y="308" width="120" height="120" as="geometry" />
        </mxCell>
        <mxCell id="ukYczLT7QkBG6kKqyN5O-5" value="" style="strokeWidth=2;dashed=0;align=center;fontSize=8;shape=rect;fillColor=#FFFFFF;strokeColor=#000000;" vertex="1" parent="ukYczLT7QkBG6kKqyN5O-19">
          <mxGeometry x="47" width="26" height="18" as="geometry" />
        </mxCell>
        <mxCell id="ukYczLT7QkBG6kKqyN5O-6" value="" style="strokeWidth=2;dashed=0;align=center;fontSize=8;shape=rect;fillColor=#FFFFFF;strokeColor=#000000;" vertex="1" parent="ukYczLT7QkBG6kKqyN5O-19">
          <mxGeometry y="18" width="26" height="18" as="geometry" />
        </mxCell>
        <mxCell id="ukYczLT7QkBG6kKqyN5O-7" value="" style="strokeWidth=2;dashed=0;align=center;fontSize=8;shape=rect;fillColor=#FFFFFF;strokeColor=#000000;" vertex="1" parent="ukYczLT7QkBG6kKqyN5O-19">
          <mxGeometry x="94" y="18" width="26" height="18" as="geometry" />
        </mxCell>
        <mxCell id="ukYczLT7QkBG6kKqyN5O-8" value="" style="strokeWidth=2;dashed=0;align=center;fontSize=8;shape=rect;fillColor=#FFFFFF;strokeColor=#000000;" vertex="1" parent="ukYczLT7QkBG6kKqyN5O-19">
          <mxGeometry y="54" width="26" height="18" as="geometry" />
        </mxCell>
        <mxCell id="ukYczLT7QkBG6kKqyN5O-9" value="" style="strokeWidth=2;dashed=0;align=center;fontSize=8;shape=rect;fillColor=#FFFFFF;strokeColor=#000000;" vertex="1" parent="ukYczLT7QkBG6kKqyN5O-19">
          <mxGeometry x="94" y="54" width="26" height="18" as="geometry" />
        </mxCell>
        <mxCell id="ukYczLT7QkBG6kKqyN5O-10" value="" style="strokeWidth=2;dashed=0;align=center;fontSize=8;shape=rect;fillColor=#FFFFFF;strokeColor=#000000;" vertex="1" parent="ukYczLT7QkBG6kKqyN5O-19">
          <mxGeometry x="47" y="72" width="26" height="18" as="geometry" />
        </mxCell>
        <mxCell id="ukYczLT7QkBG6kKqyN5O-11" value="" style="strokeWidth=2;dashed=0;align=center;fontSize=8;shape=rect;fillColor=#FFFFFF;strokeColor=#000000;" vertex="1" parent="ukYczLT7QkBG6kKqyN5O-19">
          <mxGeometry x="47" y="36" width="26" height="18" as="geometry" />
        </mxCell>
        <mxCell id="ukYczLT7QkBG6kKqyN5O-12" value="" style="edgeStyle=none;endArrow=none;dashed=0;html=1;strokeWidth=2;rounded=0;fillColor=#FFFFFF;" edge="1" source="ukYczLT7QkBG6kKqyN5O-11" target="ukYczLT7QkBG6kKqyN5O-5" parent="ukYczLT7QkBG6kKqyN5O-19">
          <mxGeometry relative="1" as="geometry" />
        </mxCell>
        <mxCell id="ukYczLT7QkBG6kKqyN5O-13" value="" style="edgeStyle=none;endArrow=none;dashed=0;html=1;strokeWidth=2;rounded=0;fillColor=#FFFFFF;" edge="1" source="ukYczLT7QkBG6kKqyN5O-11" target="ukYczLT7QkBG6kKqyN5O-6" parent="ukYczLT7QkBG6kKqyN5O-19">
          <mxGeometry relative="1" as="geometry" />
        </mxCell>
        <mxCell id="ukYczLT7QkBG6kKqyN5O-14" value="" style="edgeStyle=none;endArrow=none;dashed=0;html=1;strokeWidth=2;rounded=0;fillColor=#FFFFFF;" edge="1" source="ukYczLT7QkBG6kKqyN5O-11" target="ukYczLT7QkBG6kKqyN5O-7" parent="ukYczLT7QkBG6kKqyN5O-19">
          <mxGeometry relative="1" as="geometry" />
        </mxCell>
        <mxCell id="ukYczLT7QkBG6kKqyN5O-15" value="" style="edgeStyle=none;endArrow=none;dashed=0;html=1;strokeWidth=2;rounded=0;fillColor=#FFFFFF;" edge="1" source="ukYczLT7QkBG6kKqyN5O-11" target="ukYczLT7QkBG6kKqyN5O-8" parent="ukYczLT7QkBG6kKqyN5O-19">
          <mxGeometry relative="1" as="geometry" />
        </mxCell>
        <mxCell id="ukYczLT7QkBG6kKqyN5O-16" value="" style="edgeStyle=none;endArrow=none;dashed=0;html=1;strokeWidth=2;rounded=0;fillColor=#FFFFFF;" edge="1" source="ukYczLT7QkBG6kKqyN5O-11" target="ukYczLT7QkBG6kKqyN5O-9" parent="ukYczLT7QkBG6kKqyN5O-19">
          <mxGeometry relative="1" as="geometry" />
        </mxCell>
        <mxCell id="ukYczLT7QkBG6kKqyN5O-17" value="" style="edgeStyle=none;endArrow=none;dashed=0;html=1;strokeWidth=2;rounded=0;fillColor=#FFFFFF;" edge="1" source="ukYczLT7QkBG6kKqyN5O-11" target="ukYczLT7QkBG6kKqyN5O-10" parent="ukYczLT7QkBG6kKqyN5O-19">
          <mxGeometry relative="1" as="geometry" />
        </mxCell>
        <mxCell id="ukYczLT7QkBG6kKqyN5O-31" value="Message Broker" style="text;html=1;align=center;verticalAlign=middle;whiteSpace=wrap;rounded=0;" vertex="1" parent="ukYczLT7QkBG6kKqyN5O-19">
          <mxGeometry x="30" y="90" width="60" height="30" as="geometry" />
        </mxCell>
        <mxCell id="ukYczLT7QkBG6kKqyN5O-20" value="DB B" style="strokeWidth=2;html=1;shape=mxgraph.flowchart.database;whiteSpace=wrap;" vertex="1" parent="1">
          <mxGeometry x="680" y="220" width="60" height="60" as="geometry" />
        </mxCell>
        <mxCell id="ukYczLT7QkBG6kKqyN5O-37" style="rounded=0;orthogonalLoop=1;jettySize=auto;html=1;" edge="1" parent="1" source="ukYczLT7QkBG6kKqyN5O-21" target="ukYczLT7QkBG6kKqyN5O-2">
          <mxGeometry relative="1" as="geometry" />
        </mxCell>
        <mxCell id="ukYczLT7QkBG6kKqyN5O-44" style="edgeStyle=orthogonalEdgeStyle;rounded=0;orthogonalLoop=1;jettySize=auto;html=1;entryX=0;entryY=0.5;entryDx=0;entryDy=0;" edge="1" parent="1" source="ukYczLT7QkBG6kKqyN5O-21" target="ukYczLT7QkBG6kKqyN5O-6">
          <mxGeometry relative="1" as="geometry" />
        </mxCell>
        <mxCell id="ukYczLT7QkBG6kKqyN5O-58" style="edgeStyle=orthogonalEdgeStyle;rounded=0;orthogonalLoop=1;jettySize=auto;html=1;" edge="1" parent="1" source="ukYczLT7QkBG6kKqyN5O-21" target="ukYczLT7QkBG6kKqyN5O-4">
          <mxGeometry relative="1" as="geometry" />
        </mxCell>
        <mxCell id="ukYczLT7QkBG6kKqyN5O-21" value="Application B" style="verticalLabelPosition=bottom;html=1;verticalAlign=top;align=center;strokeColor=#000000;fillColor=#000000;shape=mxgraph.azure.computer;pointerEvents=1;" vertex="1" parent="1">
          <mxGeometry x="250" y="100" width="50" height="45" as="geometry" />
        </mxCell>
        <mxCell id="ukYczLT7QkBG6kKqyN5O-22" value="Application D" style="verticalLabelPosition=bottom;html=1;verticalAlign=top;align=center;strokeColor=#000000;fillColor=#000000;shape=mxgraph.azure.computer;pointerEvents=1;" vertex="1" parent="1">
          <mxGeometry x="550" y="130" width="50" height="45" as="geometry" />
        </mxCell>
        <mxCell id="ukYczLT7QkBG6kKqyN5O-41" style="edgeStyle=orthogonalEdgeStyle;rounded=0;orthogonalLoop=1;jettySize=auto;html=1;" edge="1" parent="1" source="ukYczLT7QkBG6kKqyN5O-23" target="ukYczLT7QkBG6kKqyN5O-20">
          <mxGeometry relative="1" as="geometry" />
        </mxCell>
        <mxCell id="ukYczLT7QkBG6kKqyN5O-43" style="edgeStyle=orthogonalEdgeStyle;rounded=0;orthogonalLoop=1;jettySize=auto;html=1;entryX=0.5;entryY=0;entryDx=0;entryDy=0;" edge="1" parent="1" source="ukYczLT7QkBG6kKqyN5O-23" target="ukYczLT7QkBG6kKqyN5O-5">
          <mxGeometry relative="1" as="geometry" />
        </mxCell>
        <mxCell id="ukYczLT7QkBG6kKqyN5O-62" style="edgeStyle=orthogonalEdgeStyle;rounded=0;orthogonalLoop=1;jettySize=auto;html=1;" edge="1" parent="1" source="ukYczLT7QkBG6kKqyN5O-23" target="ukYczLT7QkBG6kKqyN5O-33">
          <mxGeometry relative="1" as="geometry">
            <Array as="points">
              <mxPoint x="665" y="460" />
              <mxPoint x="243" y="460" />
            </Array>
          </mxGeometry>
        </mxCell>
        <mxCell id="ukYczLT7QkBG6kKqyN5O-23" value="&lt;div&gt;Application C&lt;/div&gt;" style="verticalLabelPosition=bottom;html=1;verticalAlign=top;align=center;strokeColor=#000000;fillColor=#000000;shape=mxgraph.azure.computer;pointerEvents=1;" vertex="1" parent="1">
          <mxGeometry x="640" y="370" width="50" height="45" as="geometry" />
        </mxCell>
        <mxCell id="ukYczLT7QkBG6kKqyN5O-33" value="Server B" style="sketch=0;outlineConnect=0;fontColor=#232F3E;gradientColor=none;fillColor=#232F3D;strokeColor=none;dashed=0;verticalLabelPosition=bottom;verticalAlign=top;align=center;html=1;fontSize=12;fontStyle=0;aspect=fixed;pointerEvents=1;shape=mxgraph.aws4.traditional_server;" vertex="1" parent="1">
          <mxGeometry x="220" y="350" width="45" height="78" as="geometry" />
        </mxCell>
        <mxCell id="ukYczLT7QkBG6kKqyN5O-39" style="edgeStyle=orthogonalEdgeStyle;rounded=0;orthogonalLoop=1;jettySize=auto;html=1;entryX=0.5;entryY=0;entryDx=0;entryDy=0;entryPerimeter=0;" edge="1" parent="1" source="ukYczLT7QkBG6kKqyN5O-22" target="ukYczLT7QkBG6kKqyN5O-20">
          <mxGeometry relative="1" as="geometry" />
        </mxCell>
        <mxCell id="ukYczLT7QkBG6kKqyN5O-40" style="edgeStyle=orthogonalEdgeStyle;rounded=0;orthogonalLoop=1;jettySize=auto;html=1;entryX=0;entryY=0.5;entryDx=0;entryDy=0;entryPerimeter=0;" edge="1" parent="1" source="ukYczLT7QkBG6kKqyN5O-3" target="ukYczLT7QkBG6kKqyN5O-20">
          <mxGeometry relative="1" as="geometry">
            <Array as="points">
              <mxPoint x="440" y="250" />
            </Array>
          </mxGeometry>
        </mxCell>
        <mxCell id="ukYczLT7QkBG6kKqyN5O-46" value="Internal Network" style="text;html=1;align=center;verticalAlign=middle;whiteSpace=wrap;rounded=0;" vertex="1" parent="1">
          <mxGeometry x="463" y="510" width="60" height="30" as="geometry" />
        </mxCell>
        <mxCell id="ukYczLT7QkBG6kKqyN5O-47" value="&lt;div&gt;Public Cloud&lt;/div&gt;&lt;div&gt;Provider A&lt;/div&gt;" style="ellipse;shape=cloud;whiteSpace=wrap;html=1;" vertex="1" parent="1">
          <mxGeometry x="250" y="-110" width="120" height="80" as="geometry" />
        </mxCell>
        <mxCell id="ukYczLT7QkBG6kKqyN5O-48" value="&lt;div&gt;Public Cloud&lt;/div&gt;&lt;div&gt;Provider B&lt;/div&gt;" style="ellipse;shape=cloud;whiteSpace=wrap;html=1;" vertex="1" parent="1">
          <mxGeometry x="450" y="-100" width="120" height="80" as="geometry" />
        </mxCell>
        <mxCell id="ukYczLT7QkBG6kKqyN5O-54" value="" style="endArrow=classic;startArrow=classic;html=1;rounded=0;entryX=0.55;entryY=0.95;entryDx=0;entryDy=0;entryPerimeter=0;exitX=0.541;exitY=0.12;exitDx=0;exitDy=0;exitPerimeter=0;" edge="1" parent="1" source="ukYczLT7QkBG6kKqyN5O-36" target="ukYczLT7QkBG6kKqyN5O-48">
          <mxGeometry width="50" height="50" relative="1" as="geometry">
            <mxPoint x="570" y="30" as="sourcePoint" />
            <mxPoint x="620" y="-20" as="targetPoint" />
          </mxGeometry>
        </mxCell>
        <mxCell id="ukYczLT7QkBG6kKqyN5O-55" value="" style="endArrow=classic;startArrow=classic;html=1;rounded=0;entryX=0.55;entryY=0.95;entryDx=0;entryDy=0;entryPerimeter=0;exitX=0.391;exitY=0.095;exitDx=0;exitDy=0;exitPerimeter=0;" edge="1" parent="1" source="ukYczLT7QkBG6kKqyN5O-36" target="ukYczLT7QkBG6kKqyN5O-47">
          <mxGeometry width="50" height="50" relative="1" as="geometry">
            <mxPoint x="261" y="16" as="sourcePoint" />
            <mxPoint x="315" y="-60" as="targetPoint" />
          </mxGeometry>
        </mxCell>
      </root>
    </mxGraphModel>
  </diagram>
</mxfile>
